<svg width="335" height="376" viewBox="0 0 335 376" fill="none" xmlns="http://www.w3.org/2000/svg">
<path d="M271.887 50.1075C277.172 54.5709 280.368 62.3525 280.75 73.8217C281.132 85.2628 278.662 99.6521 273.385 116.125C262.845 149.027 241.462 189.151 211.622 228.53C181.781 267.908 149.395 298.74 121.302 316.819C107.236 325.87 94.4807 331.573 83.8235 333.692C73.1401 335.817 65.247 334.234 59.9616 329.771C54.6762 325.307 51.4806 317.526 51.0983 306.057C50.7169 294.615 53.187 280.226 58.4639 263.753C69.0037 230.851 90.3862 190.727 120.227 151.348C150.068 111.97 182.454 81.1385 210.547 63.0597C224.612 54.0082 237.368 48.305 248.025 46.1858C258.709 44.0614 266.602 45.6441 271.887 50.1075Z" stroke="#14FFEC" stroke-width="10"/>
<path d="M250.065 331.339C243.585 335.677 235 336.731 224.422 334.053C213.828 331.371 201.686 325.036 188.752 315.327C162.906 295.924 134.726 263.669 110.552 223.079C86.3781 182.49 71.0234 141.649 65.6106 108.567C62.9018 92.0117 62.7269 77.6653 64.9969 66.3717C67.2637 55.0945 71.8518 47.3295 78.3317 42.9915C84.8117 38.6534 93.3967 37.5994 103.975 40.2774C114.568 42.9593 126.711 49.294 139.645 59.0039C165.49 78.4065 193.67 110.662 217.844 151.251C242.018 191.84 257.373 232.682 262.786 265.763C265.495 282.319 265.67 296.665 263.4 307.959C261.133 319.236 256.545 327.001 250.065 331.339Z" stroke="#14FFEC" stroke-width="10"/>
<path d="M328.86 190.095C328.778 198.454 324.828 206.775 316.939 214.735C309.026 222.719 297.375 230.088 282.615 236.331C253.113 248.81 212.1 256.405 166.623 255.909C121.145 255.413 80.2902 246.925 51.0387 233.805C36.4053 227.241 24.9009 219.619 17.1465 211.465C9.41482 203.334 5.62972 194.929 5.71175 186.57C5.79379 178.211 9.74304 169.891 17.6327 161.93C25.5454 153.946 37.1969 146.577 51.9561 140.334C81.4588 127.855 122.471 120.26 167.949 120.756C213.427 121.252 254.281 129.74 283.533 142.86C298.166 149.424 309.671 157.046 317.425 165.201C325.157 173.332 328.942 181.736 328.86 190.095Z" stroke="#14FFEC" stroke-width="10"/>
<path d="M206.674 164.264C206.674 166.024 205.201 167.483 203.424 167.483H125.424C123.648 167.483 122.174 166.024 122.174 164.264C122.174 162.505 123.648 161.046 125.424 161.046H129.844L131.491 153.278C133.051 145.767 136.301 138.858 149.214 138.858H179.634C192.548 138.858 195.798 145.767 197.358 153.278L199.004 161.046H203.424C205.201 161.046 206.674 162.505 206.674 164.264Z" fill="#14FFEC"/>
<path d="M208.544 188.563C207.894 181.482 205.987 173.929 192.077 173.929H136.784C122.874 173.929 121.011 181.482 120.318 188.563L117.891 214.7C117.588 217.961 118.671 221.223 120.924 223.669C123.221 226.158 126.471 227.575 129.938 227.575H138.084C145.104 227.575 146.448 223.583 147.314 220.965L148.181 218.39C149.178 215.429 149.438 214.7 153.338 214.7H175.524C179.424 214.7 179.554 215.129 180.681 218.39L181.548 220.965C182.414 223.583 183.758 227.575 190.778 227.575H198.924C202.348 227.575 205.641 226.158 207.938 223.669C210.191 221.223 211.274 217.961 210.971 214.7L208.544 188.563ZM151.431 197.533H138.431C136.654 197.533 135.181 196.074 135.181 194.314C135.181 192.555 136.654 191.095 138.431 191.095H151.431C153.208 191.095 154.681 192.555 154.681 194.314C154.681 196.074 153.208 197.533 151.431 197.533ZM190.431 197.533H177.431C175.654 197.533 174.181 196.074 174.181 194.314C174.181 192.555 175.654 191.095 177.431 191.095H190.431C192.208 191.095 193.681 192.555 193.681 194.314C193.681 196.074 192.208 197.533 190.431 197.533Z" fill="#14FFEC"/>
</svg>
